<?xml version="1.0" encoding="UTF-8" standalone="no"?>
<!-- Created with Inkscape (http://www.inkscape.org/) -->

<svg
   width="48"
   height="48"
   viewBox="0 0 12.7 12.7"
   version="1.1"
   id="svg395"
   inkscape:version="1.2.1 (9c6d41e410, 2022-07-14)"
   sodipodi:docname="valet_app_final.svg"
   inkscape:export-filename="logo.png"
   inkscape:export-xdpi="1024"
   inkscape:export-ydpi="1024"
   xmlns:inkscape="http://www.inkscape.org/namespaces/inkscape"
   xmlns:sodipodi="http://sodipodi.sourceforge.net/DTD/sodipodi-0.dtd"
   xmlns="http://www.w3.org/2000/svg"
   xmlns:svg="http://www.w3.org/2000/svg">
  <sodipodi:namedview
     id="namedview397"
     pagecolor="#ffffff"
     bordercolor="#ffffff"
     borderopacity="0"
     inkscape:showpageshadow="false"
     inkscape:pageopacity="0"
     inkscape:pagecheckerboard="true"
     inkscape:deskcolor="#505050"
     inkscape:document-units="mm"
     showgrid="true"
     inkscape:zoom="16"
     inkscape:cx="15.125"
     inkscape:cy="11.6875"
     inkscape:window-width="1920"
     inkscape:window-height="979"
     inkscape:window-x="0"
     inkscape:window-y="0"
     inkscape:window-maximized="1"
     inkscape:current-layer="layer3"
     inkscape:lockguides="true"
     borderlayer="true">
    <inkscape:grid
       type="xygrid"
       id="grid446" />
  </sodipodi:namedview>
  <defs
     id="defs392" />
  <g
     inkscape:label="Red Square"
     inkscape:groupmode="layer"
     id="layer1"
     style="display:inline">
    <g
       inkscape:groupmode="layer"
       id="layer2"
       inkscape:label="Valet_cloned_hair 1"
       style="display:none"
       inkscape:export-filename="./logo.png"
       inkscape:export-xdpi="1030.0306"
       inkscape:export-ydpi="1030.0306">
      <rect
         style="display:inline;fill:#ffffff;fill-opacity:1;stroke:none;stroke-width:0.0744626;stroke-opacity:1"
         id="rect2921"
         width="12.625644"
         height="12.625644"
         x="0.037231281"
         y="0.037231281"
         rx="2.1275017"
         ry="2.1275017" />
    </g>
    <g
       inkscape:groupmode="layer"
       id="layer3"
       inkscape:label="Valet_cloned_hair 2">
      <rect
         style="fill:#ffffff;stroke-width:0.24378"
         id="rect1035"
         width="12.762944"
         height="12.782498"
         x="-0.062011719"
         y="-0.080586977" />
    </g>
    <g
       inkscape:groupmode="layer"
       id="layer4"
       inkscape:label="Valet_cloned_hair"
       style="display:inline">
      <g
         id="g2064" />
      <g
         id="g401"
         transform="translate(-0.23702664,0.42360251)">
        <path
           style="display:inline;fill:#000000;stroke:#000000;stroke-width:0.0362528;stroke-opacity:1"
           d="M 1.674562,3.7300238 C 1.2584242,3.9988904 1.5031317,4.0095628 1.8254655,4.3870274 2.1477992,4.764492 2.5323675,5.2407932 2.6805851,5.4521766 2.8288027,5.6635601 2.8533166,5.688306 2.9572603,5.843028 3.0612039,5.9977499 3.1001883,6.1201864 3.0952432,6.3355989 3.090298,6.5510114 3.2965163,6.8392658 3.1814207,7.0055039 3.0663251,7.1717421 2.8535725,7.2688704 2.8806743,7.6515983 2.9031441,7.9689139 3.0414472,7.8688758 3.0059794,8.2302665 2.9753699,8.5421551 2.8428304,8.5685429 2.7280417,8.780822 2.6173038,8.9856101 2.6229056,9.0877749 2.6571755,9.2568589 c 0.021054,0.103877 0.1186037,0.2226003 0.2642193,0.2996703 0.2685278,0.1421239 2.2662566,0.361803 4.4185304,0.440979 2.1522738,0.07918 4.1129118,0.05822 3.9589708,-0.0665 C 11.144955,9.8062874 11.003139,9.659388 10.885008,9.5630688 10.766876,9.4667497 10.677809,9.3815792 10.472067,9.2139754 10.266326,9.0463716 10.220507,9.0190027 10.118129,8.9464384 10.015752,8.8738741 9.9502418,8.8336218 9.9589852,8.7769826 9.9677286,8.7203434 10.144405,8.6961752 10.276948,8.6807095 10.40949,8.6652437 10.90031,8.555318 11.228699,8.4049909 11.557087,8.2546638 11.380763,8.1730471 11.208386,8.1938032 11.036008,8.2145592 10.871502,8.1900332 10.668007,8.1955732 10.464511,8.2011032 10.376501,8.0356302 10.243455,7.907952 10.110408,7.7802712 10.041259,7.6375562 9.8820757,7.3943351 9.7228927,7.1511139 9.8232627,6.9599233 9.8908618,6.8252993 c 0.067591,-0.134624 0.076044,-0.2616106 0.078102,-0.4924217 0.00205,-0.2308112 0.013397,-0.3539865 0.026034,-0.3671102 0.012637,-0.013124 -0.014311,-0.034818 0.1579632,0.014561 0.172274,0.049379 0.376493,0.057843 0.389807,-0.2331806 C 10.556077,5.4561239 10.225778,5.0246114 10.070657,4.7622684 9.9155355,4.4999255 9.8419731,4.408001 9.8467427,4.3098004 9.8515123,4.2115999 10.056548,4.0841168 10.2758,3.9009537 10.495052,3.7177906 10.74761,3.5081587 10.862472,3.2918642 10.977334,3.0755698 10.075641,2.5380936 9.6350862,2.3424769 9.1945319,2.1468603 8.9302448,2.0931401 8.3624694,2.0314692 7.8700519,1.9779837 7.4730669,2.0307023 6.5998561,2.096075 5.7266453,2.1614477 4.4834499,2.4609991 3.6562342,2.7608485 2.8290184,3.0606979 2.0906999,3.4611571 1.674562,3.7300238 Z M 6.4026217,2.3325952 C 7.3644951,2.2723792 7.8401868,2.1900512 8.2756292,2.218711 8.6018329,2.240181 9.1071299,2.3594064 9.3315606,2.4459187 9.5559913,2.5324307 9.7868998,2.67956 9.9855843,2.826627 c 0.1986847,0.1470669 0.4325527,0.3717652 0.4325527,0.3986229 0,0.026858 0.05918,0.034593 -0.09927,0.034327 -0.15845,-2.655e-4 -0.09576,0.00623 -0.4390402,0.01333 C 9.5365439,3.2800049 8.6617729,3.3730634 8.1051684,3.4617571 7.548564,3.5504508 6.8189239,3.6221409 6.4266985,3.6629621 6.0344732,3.7037832 5.8027422,3.7855985 5.1658881,3.9754967 4.529034,4.1653949 4.0523819,4.3735116 3.5913023,4.5812615 3.1302226,4.7890114 2.6325589,5.1601805 2.421137,4.8609172 2.2097152,4.5616538 2.0208679,4.345019 1.9031235,4.2078847 1.7853791,4.0707504 1.7342796,4.009168 1.7433952,3.9462305 1.7525109,3.8832929 2.4452075,3.559477 2.7405501,3.3803145 3.0358927,3.201152 3.7052621,2.9371951 4.3520194,2.7514201 4.9987766,2.565645 5.4407484,2.3928112 6.4026217,2.3325952 Z m 3.2433458,1.8417554 c -0.00254,0.051547 0.0078,0.1550858 0.015358,0.2247727 0.00756,0.069687 -0.034324,0.00586 0.06165,0.1748374 0.095974,0.1689804 0.5704355,0.9173475 0.6041465,1.0037339 0.03371,0.086386 0.03097,0.2328484 -0.02446,0.2603235 -0.05543,0.027475 -0.04836,-0.084509 -0.09558,-0.1221678 C 10.159862,5.6781913 10.058287,5.600155 9.9654152,5.6582523 9.8725432,5.7163493 9.8249512,5.7967908 9.7474531,5.8497312 9.6699551,5.9026712 9.6036294,5.8481012 9.5630603,5.8104522 9.5224913,5.7728032 9.5227293,5.6236872 9.6089563,5.5582732 9.6951823,5.4928592 9.8300972,5.427608 9.7543743,5.3804473 9.6786513,5.3332863 9.5867409,5.3583243 9.49471,5.4399383 9.402679,5.5215523 9.3649801,5.5624332 9.3257021,5.6593026 c -0.039278,0.096869 -0.035395,0.2329931 0.046474,0.3153818 0.081869,0.082389 0.1199582,0.098753 0.2596759,0.092136 0.1397177,-0.00662 0.1636989,-0.022707 0.1636989,0.098837 0,0.1215446 -0.077473,0.2835645 -0.1928211,0.2285614 -0.1153484,-0.055003 -0.1370796,-0.00963 -0.2149156,0.073614 -0.077836,0.083245 -0.1417466,0.035571 -0.192144,-0.049085 -0.050397,-0.084656 -0.1177296,0.1478484 -0.1004392,0.320355 0.017291,0.1725065 0.0011,0.2564234 0.00405,0.3107956 0.00295,0.054372 0.061066,0.2033826 0.1221876,-0.063874 0.061122,-0.2672565 0.2835548,-0.3371016 0.4174599,-0.3724483 0.1339051,-0.035347 0.1836959,0.00888 0.1023844,0.2109155 -0.081312,0.2020372 -0.058531,0.3725491 -0.026211,0.4834389 0.03232,0.1108898 0.103386,0.2180677 0.1736432,0.3165475 0.070255,0.09848 0.070246,0.1763041 0.083113,0.2057288 0.012868,0.029425 0.00845,0.2988929 -0.055141,0.303323 C 9.8530996,8.1379607 9.6727625,7.9683946 9.4862463,8.0368591 9.29973,8.1053235 9.3091382,8.2751077 9.0522429,8.0757241 8.7953475,7.8763404 8.8088875,8.2449815 8.4850257,8.0546435 8.161164,7.8643056 8.028021,8.156989 7.6602247,8.0375906 7.2924284,7.9181922 7.4044272,8.1082468 7.1651705,7.9685772 6.9259139,7.8289076 6.926196,8.1642554 6.9094125,7.8348631 6.892629,7.5054707 7.6334356,7.2016244 7.4222627,6.5215683 7.2110897,5.8415122 7.1207878,6.0519575 7.0343935,5.435852 6.9479991,4.8197465 7.021763,5.3194102 7.2840226,4.9809339 7.5462821,4.6424577 7.775928,4.4351033 8.1198764,4.1224754 8.4638248,3.8098475 8.8258023,3.7768472 9.0194839,3.7340971 9.2131655,3.6913471 9.2884051,3.6186698 9.1553576,3.5753279 9.0223101,3.531986 8.9781011,3.492252 9.3188855,3.4603545 9.65967,3.4284575 9.4745697,3.4500965 9.5001468,3.4470725 c 0.025577,-0.00302 0.047774,-0.00719 0.068637,0.010309 0.020863,0.017497 -0.014601,0.053386 0.013082,0.1826921 0.027683,0.129306 0.067132,0.4729483 0.064101,0.534277 -0.00303,0.061329 0.00255,-0.051548 7e-7,0 z M 10.453878,3.4979293 c -0.0055,0.064155 -0.15208,0.1386232 -0.28528,0.2598461 C 10.035397,3.8789983 9.8576694,4.0328022 9.8336677,3.9300721 9.809666,3.8273421 9.7628356,3.657346 9.788003,3.5322069 c 0.025167,-0.1251391 0.055492,-0.09854 0.224273,-0.098286 0.168782,2.537e-4 0.447078,-1.462e-4 0.441602,0.064008 z M 8.2150764,3.6073041 C 8.9237714,3.5372886 8.1282087,3.7960105 7.8302754,4.0490379 7.5323422,4.3020653 7.2416016,4.8305579 7.0726695,5.0184392 6.9037374,5.2063205 6.8307921,4.8189702 6.8039527,4.6650071 6.7771134,4.5110439 6.7322454,4.3638935 6.66761,4.2343583 6.6029747,4.1048231 6.3969403,4.0779079 6.8242524,3.9559378 7.2515644,3.8339676 7.5063815,3.6773197 8.2150764,3.6073041 Z M 4.7969148,4.251319 C 5.6644127,3.9501945 5.5710832,4.0062662 5.7448211,3.955844 5.918559,3.9054218 6.0943476,3.8750629 6.2208189,3.8542063 6.3472902,3.8333497 6.4645442,3.8414561 6.4176534,3.8972799 6.3707626,3.9531038 6.1055208,4.0603035 6.0228383,4.1011133 5.9401558,4.1419232 5.5764493,4.3213747 5.1097385,4.5623645 4.6430276,4.8033542 3.7988511,5.3870623 3.4668716,5.7094172 3.1348921,6.0317721 3.1865788,5.8655075 3.1231469,5.7575127 3.0265866,5.5619118 2.8879493,5.4029136 2.7578023,5.2408231 2.7130794,5.1503639 3.0264443,4.990798 3.3730121,4.825894 3.7195799,4.66099 3.9294168,4.5524434 4.7969148,4.251319 Z m 2.3291446,4.1505326 c 0.049171,0.003 0.1221566,0.063178 0.1442849,0.3785824 0.022128,0.3154045 0.1534751,0.3280214 0.4919806,0.3247512 0.3385054,-0.00327 0.4108925,-0.018707 0.5535401,-0.00342 0.1426476,0.015292 0.7024913,0.034144 0.9701586,0.056003 0.2676672,0.021859 0.7636834,0.048154 0.9485584,0.1530337 0.184875,0.1048787 0.480144,0.3619544 0.581787,0.4569842 0.101644,0.09503 0.07302,0.084727 -0.02608,0.090786 -0.0991,0.0061 -0.409028,0.01999 -0.8709514,0.0088 C 9.4574182,9.8561132 8.6351191,9.8069517 8.3080459,9.7735577 7.9809726,9.7401637 7.570353,9.7340416 7.3520092,9.695119 7.1336653,9.6561963 7.1076884,9.1684342 7.1070861,8.850602 7.1064837,8.5327698 7.0971529,8.6283892 7.0955554,8.5662078 7.0939578,8.5040265 7.0768887,8.3988576 7.1260591,8.401854 Z M 7.878377,8.5747244 c 0.2817657,0.00188 0.9247311,0.060559 1.3416345,0.099919 0.4169035,0.03936 0.4719084,0.053439 0.4987363,0.1667494 0.026828,0.1133104 0.030124,0.1487281 -0.097264,0.1443942 C 9.4940954,8.9814495 8.4229262,8.9076045 8.1715415,8.8869132 7.9201568,8.866222 7.5335211,8.9095249 7.4782774,8.8501679 7.4230334,8.790811 7.4336297,8.7467373 7.4309964,8.6842847 c -0.00263,-0.062453 -0.025091,-0.1014805 0.020018,-0.1267499 0.04511,-0.02527 0.1455959,0.015309 0.4273626,0.01719 z"
           id="path3308"
           sodipodi:nodetypes="ssssszsssssssssssssssssccsscssssssssssssssssssssssssssccsssssssssssssssssssssssssssssssssssssssssssccsssscssssssssssssssccsscssssssccssssccssscsscss" />
        <path
           style="display:inline;fill:#000000;stroke:#000000;stroke-width:0.0362528;stroke-opacity:1"
           d="m 9.1963039,4.0808701 c -0.033525,-0.017503 -0.083779,-0.024558 -0.1073571,0.022484 -0.023578,0.047043 -0.031017,0.06877 -0.065225,0.092099 C 8.9895128,4.2187833 8.872609,4.1739306 8.8369217,4.1508615 8.8012345,4.1277924 8.6187781,4.1128367 8.4815425,4.1677358 8.3443068,4.2226349 8.1939235,4.3882397 8.095818,4.5246868 7.9977126,4.6611339 7.8649353,4.8139176 7.7230545,4.9676968 7.5811737,5.121476 7.4096284,5.2000415 7.4649301,5.2955367 c 0.055302,0.095495 0.1702821,0.1331517 0.2723893,0.237433 0.1021072,0.1042813 0.278217,0.2998958 0.3197524,0.303525 0.041535,0.00363 0.100234,-0.1580747 0.025591,-0.222384 -0.074642,-0.064309 -0.062051,-0.1185 0.1028085,-0.090895 0.1648594,0.027605 0.2229909,0.022046 0.4271185,-0.00132 0.2041275,-0.02337 0.2192098,-0.020292 0.2047345,0.018091 -0.014475,0.038382 -0.099783,0.059248 -0.132382,0.1074552 -0.032599,0.048207 -0.036678,0.073642 0.03928,0.1038979 0.075958,0.030256 0.2153213,-0.056047 0.304059,-0.1532671 0.088738,-0.097221 0.146339,-0.1917258 0.00521,-0.2855029 C 8.8923601,5.2187887 9.0579408,5.1358173 9.0502989,4.9297503 9.0426569,4.7236832 8.9312921,4.5511475 8.9167139,4.5035694 8.9021357,4.4559914 9.0070059,4.3998629 9.098835,4.3062808 9.1906641,4.2126987 9.2298286,4.0983732 9.1963039,4.0808701 Z M 8.7339309,4.2643614 C 8.7512887,4.2812128 8.5790249,4.5700852 8.3368165,4.7775212 8.0946081,4.9849571 7.8916007,5.0939056 7.8920485,5.0391757 7.8924964,4.9844457 8.2025419,4.5949012 8.357996,4.4377681 8.51345,4.280635 8.5136226,4.2925127 8.5748852,4.2695323 c 0.061263,-0.02298 0.1416879,-0.022023 0.1590457,-0.00517 z M 8.4894851,4.867977 c 0.018148,0.00207 0.048444,0.06379 0.055155,0.2307676 0.00671,0.1669774 0.061586,0.1856799 -0.083739,0.2073711 C 8.315576,5.3278068 8.0747485,5.2731879 7.9988285,5.227583 7.9229085,5.181978 8.0665595,5.14158 8.149732,5.0983003 c 0.083172,-0.04328 0.19833,-0.1246447 0.2453283,-0.1703179 0.046998,-0.045673 0.083536,-0.061247 0.094425,-0.060008 0.010888,0.00124 -0.018148,-0.00207 -2e-7,2.6e-6 z"
           id="path2097" />
      </g>
    </g>
  </g>
</svg>
